<svg xmlns="http://www.w3.org/2000/svg" width="100" height="115" viewBox="0 0 100 115">
    <path d="M176.14 107.421c-23.315 0-42.283-18.969-42.283-42.283 0-23.315 18.968-42.282 42.282-42.282 23.315 0 42.283 18.967 42.283 42.282 0 23.314-18.968 42.283-42.283 42.283zM227 27.206s-1.616-4.848-4.849-8.08c-3.232-3.232-8.08-4.848-8.08-4.848l-10.27 10.271c-5.482-3.748-11.759-6.406-18.52-7.684V2.285S180.712 0 176.14 0c-4.57 0-9.142 2.286-9.142 2.286v14.58C144.258 21.163 127 41.166 127 65.137c0 27.096 22.044 49.14 49.14 49.14 27.095 0 49.139-22.044 49.139-49.14 0-10.251-3.16-19.775-8.55-27.66L227 27.205zm-50.86 2.506c-1.893 0-3.429 1.535-3.429 3.429v31.997c0 1.894 1.536 3.429 3.428 3.429 1.893 0 3.429-1.535 3.429-3.429V33.141c0-1.894-1.536-3.429-3.429-3.429z" transform="translate(-910 -347) translate(783 347)"/>
</svg>
