<svg xmlns="http://www.w3.org/2000/svg" xmlns:xlink="http://www.w3.org/1999/xlink" width="24" height="24" viewBox="0 0 24 24">
    <path fill="#000" d="M20.16 3C21.174 3 22 3.816 22 4.822v14.355C22 20.185 21.175 21 20.16 21H3.84C2.826 21 2 20.185 2 19.177V4.823C2 3.816 2.825 3 3.84 3zm-9.13 6.3h-.605c-.197 0-.357.158-.357.354v3.092c0 .34-.033.582-.103.726-.069.144-.177.215-.324.215-.093 0-.165-.024-.215-.072-.073-.074-.126-.17-.157-.291-.03-.119-.047-.302-.049-.55L7.962 13c.022.433.098.796.227 1.089.13.295.312.517.548.67.237.152.57.228 1 .228.408 0 .741-.114 1.002-.345.26-.232.434-.515.52-.848.086-.332.13-.818.13-1.456V9.654c0-.196-.16-.354-.358-.354zm3.24 0h-.826c-.181 0-.34.119-.39.29l-1.519 5.303h1.345l.208-.924h1.495l.213.924h2.43c.162 0 .309-.094.377-.239l.73-1.558.73 1.558c.068.145.215.239.377.239h1.215l-1.361-2.704c-.058-.113-.059-.248-.002-.363L20.53 9.3h-1.162c-.166 0-.317.099-.383.251l-.626 1.469-.645-1.473c-.067-.15-.216-.247-.381-.247h-1.178l1.244 2.495c.057.116.057.25 0 .365l-1.28 2.536-1.462-5.105c-.049-.172-.208-.291-.388-.291zm-8.205 0h-.718c-.212 0-.399.14-.457.343l-1.505 5.25H4.73l.208-.924h1.496l.212.924h1.38l-1.503-5.25c-.058-.204-.246-.343-.458-.343zM5.497 11L6 13H5l.497-2zm8 0L14 13h-1l.498-2z"/>
</svg>
