<svg xmlns="http://www.w3.org/2000/svg" xmlns:xlink="http://www.w3.org/1999/xlink" width="24" height="24" viewBox="0 0 24 24">
    <path fill="#000" d="M18.201 15.372c-.46 0-.895.111-1.28.31l-1.59-1.636c.242-.414.381-.896.381-1.41 0-.831-.36-1.58-.935-2.097l.94-1.942c.138.02.285.031.431.031 1.546 0 2.803-1.261 2.803-2.814C18.95 4.262 17.694 3 16.148 3s-2.802 1.262-2.802 2.814c0 .836.364 1.588.943 2.106l-.935 1.934c-.147-.023-.294-.035-.444-.035-1.455 0-2.656 1.118-2.79 2.547l-1.789.327c-.451-.948-1.415-1.605-2.529-1.605C4.257 11.088 3 12.35 3 13.903c0 1.552 1.257 2.814 2.802 2.814 1.427 0 2.609-1.075 2.783-2.46l1.835-.334c.468.903 1.408 1.524 2.49 1.524.46 0 .896-.111 1.28-.31l1.586 1.636c-.242.414-.38.895-.38 1.413 0 1.552 1.256 2.814 2.802 2.814C19.743 21 21 19.738 21 18.186c.004-1.553-1.253-2.814-2.799-2.814zM16 5c.553 0 1 .447 1 1 0 .553-.45 1-1 1s-1-.447-1-1c0-.553.447-1 1-1zM6 15c-.553 0-1-.447-1-1 0-.553.447-1 1-1 .553 0 1 .447 1 1 0 .553-.447 1-1 1zm6.393-1.204c-.117-.091-.214-.205-.283-.337l-.01-.02c-.012-.026-.022-.052-.032-.078l-.01-.029c-.01-.023-.016-.048-.022-.074l-.01-.036c-.007-.026-.01-.052-.013-.078 0-.01-.003-.022-.007-.032-.003-.036-.006-.075-.006-.114l.003-.09c0-.007 0-.013.003-.02.004-.029.007-.055.013-.084 0-.007.004-.013.004-.02l.016-.068c.003-.006.003-.013.006-.02.007-.025.017-.048.026-.074.004-.01.007-.02.013-.026.12-.272.36-.48.653-.56.036-.01.068-.017.104-.023.013-.003.026-.003.039-.007.013 0 .026-.003.036-.003.029-.003.058-.003.087-.003.033 0 .062.003.091.003.01 0 .016.003.026.003l.068.01c.01 0 .017.003.026.003.03.007.055.013.081.023.01.003.017.007.023.01.02.006.04.013.055.02l.033.012c.016.007.032.016.045.023.017.006.03.016.046.023l.048.029.04.029c.01.006.016.013.025.02l.043.032.01.01c.032.029.061.058.09.09.016.017.03.036.042.052 0 .003.004.003.004.007.042.055.078.113.107.175.062.13.094.272.094.424 0 .555-.448 1.002-1.003 1.002-.224.003-.435-.075-.604-.204zM18 19c-.553 0-1-.447-1-1 0-.553.447-1 1-1 .553 0 1 .447 1 1 0 .553-.45 1-1 1z"/>
</svg>
