<svg xmlns="http://www.w3.org/2000/svg" xmlns:xlink="http://www.w3.org/1999/xlink" width="24" height="24" viewBox="0 0 24 24">
    <path fill="#000" d="M17.778 6.205c-1.481-1.463-3.53-2.395-5.779-2.395-2.266 0-4.314.932-5.795 2.395C4.742 7.685 3.809 9.734 3.809 12c0 2.248.933 4.296 2.395 5.777 1.48 1.48 3.529 2.394 5.795 2.394 2.25 0 4.298-.913 5.779-2.394 1.48-1.481 2.393-3.53 2.393-5.777 0-2.267-.913-4.315-2.393-5.796m-5.779 6.929c-.51 0-.858-.421-.913-.914l-.457-4.077c-.073-.713.676-1.37 1.37-1.37.696 0 1.445.657 1.353 1.37l-.438 4.077c-.055.493-.402.914-.915.914m0 1.371c.75 0 1.353.604 1.353 1.353S12.75 17.23 12 17.23c-.749 0-1.37-.623-1.37-1.372 0-.75.621-1.353 1.37-1.353M12 2c2.761 0 5.267 1.115 7.076 2.925C20.886 6.735 22 9.24 22 12.001c0 2.76-1.114 5.265-2.925 7.075C17.265 20.885 14.76 22 11.999 22c-2.76 0-5.265-1.116-7.075-2.925C3.114 17.266 2 14.76 2 12 2 9.24 3.114 6.734 4.924 4.925 6.734 3.115 9.24 2 12 2"/>
</svg>
