<svg xmlns="http://www.w3.org/2000/svg" xmlns:xlink="http://www.w3.org/1999/xlink" width="24" height="24" viewBox="0 0 24 24">
    <path fill="#000" d="M3.198 18.572l5.05-7.37c.27-.398.81-.496 1.21-.232.094.067.175.147.238.24l.926 1.358 3.391-4.95c.27-.398.81-.5 1.21-.233.094.067.175.147.238.241l1.021 1.487 3.926-5.732c.265-.397.81-.5 1.205-.232.248.165.383.437.383.719H22V19.13c0 .482-.391.87-.872.87H3.877C3.39 20 3 19.612 3 19.13c0-.22.072-.407.198-.558zm-1.66 4.424h20.937c.287 0 .525-.234.525-.526 0-.291-.238-.525-.525-.525H2.05V1.525c0-.292-.238-.525-.525-.525C1.233 1 1 1.233 1 1.525v20.95c0 .292.238.525.525.525h.014v-.004z"/>
</svg>
