<svg xmlns="http://www.w3.org/2000/svg" xmlns:xlink="http://www.w3.org/1999/xlink" width="24" height="24" viewBox="0 0 24 24">
    <path fill="#000" d="M14.502 8c.275 0 .498-.227.498-.502S14.777 7 14.502 7 14 7.227 14 7.498c0 .275.227.502.502.502zM15 13c-.551 0-1.049.224-1.415.585-.36.361-.585.864-.585 1.415s.224 1.049.585 1.415c.361.36.864.585 1.415.585s1.049-.224 1.415-.585c.36-.361.585-.864.585-1.415s-.224-1.049-.585-1.415C16.049 13.225 15.55 13 15 13zm-8 5c.551 0 1.054-.224 1.415-.585C8.775 17.054 9 16.55 9 16s-.224-1.054-.585-1.415C8.054 14.225 7.55 14 7 14c-.546 0-1.049.23-1.415.585C5.225 14.946 5 15.45 5 16c0 .546.224 1.049.585 1.415.361.36.864.585 1.415.585zm7-8c0 .55.45 1 1 1 .554 0 1-.45 1-1 0-.554-.446-1-1-1-.55-.005-1 .446-1 1zm2.5 2c.276 0 .5-.224.5-.5s-.224-.5-.5-.5-.5.224-.5.5c0 .28.224.5.5.5zm4.497-5C21.55 7 22 6.554 22 6s-.45-1-1.003-1C20.444 5 20 5.45 20 6c0 .554.45 1 .997 1zm-2 6c-.553 0-.997.45-.997 1.003 0 .553.45.997.997.997.553 0 1.003-.45 1.003-.997C20 13.45 19.55 13 18.997 13zm3.48 8.953H2.047V1.523c0-.288-.235-.523-.524-.523C1.235 1 1 1.235 1 1.523v20.954c0 .288.235.523.523.523h20.954c.288 0 .523-.235.523-.523 0-.294-.24-.524-.523-.524zM8.5 14c.276 0 .5-.224.5-.5s-.224-.5-.5-.5-.5.224-.5.5.224.5.5.5zm1.5 2.003c0 .553.446.997 1 .997.55 0 1-.45 1-.997C12 15.45 11.55 15 11 15c-.554 0-1 .45-1 1.003zM5.5 20c.272 0 .5-.227.5-.498 0-.275-.228-.502-.5-.502-.276 0-.5.227-.5.502s.224.498.5.498zm7.998-8c.275 0 .502-.224.502-.5s-.227-.5-.502-.5-.498.224-.498.5c0 .28.223.5.498.5zM12 16.5c0 .276.224.5.5.5s.5-.224.5-.5-.224-.5-.5-.5c-.28 0-.5.224-.5.5zM4.003 19c.553 0 .997-.45.997-1.003 0-.553-.45-.997-.997-.997C3.45 17 3 17.45 3 17.997 3 18.55 3.45 19 4.003 19zm7-4c.546 0 1.05-.225 1.41-.586.362-.361.587-.865.587-1.416 0-.547-.225-1.05-.586-1.412-.361-.361-.865-.586-1.412-.586-.551 0-1.055.225-1.416.586S9 12.451 9 12.998c0 .551.225 1.055.586 1.416s.865.586 1.416.586zm7.995-3c.551 0 1.055-.22 1.416-.586.361-.361.586-.865.586-1.416 0-.547-.225-1.05-.586-1.412-.361-.361-.865-.586-1.416-.586-.547 0-1.05.225-1.412.586-.361.361-.586.865-.586 1.412 0 .551.225 1.055.586 1.416.361.366.865.586 1.412.586z"/>
</svg>
