<svg xmlns="http://www.w3.org/2000/svg" xmlns:xlink="http://www.w3.org/1999/xlink" width="24" height="24" viewBox="0 0 24 24">
    <path fill="#000" d="M22.473 21.954H2.045V1.524c0-.292-.236-.524-.522-.524C1.236 1 1 1.237 1 1.523v20.954c0 .291.259.523.545.523h20.932c.291 0 .523-.232.523-.523 0-.291-.236-.523-.527-.523zm-5.857-7.237h.89v3.776c0 .277.235.507.541.507.306 0 .541-.225.541-.507v-3.776h.838c.33 0 .574-.23.574-.53v-3.374c0-.3-.245-.506-.574-.506h-.838v-3.8c0-.277-.235-.507-.54-.507-.307 0-.542.225-.542.507v3.8h-.89c-.324 0-.616.206-.616.506v3.374c0 .3.292.53.616.53zM4.605 15.75h.919v3.743c0 .276.238.506.547.506.31 0 .548-.225.548-.506V15.75h.829c.333 0 .552-.267.552-.567v-3.372c0-.3-.219-.563-.552-.563h-.829V7.506c0-.276-.238-.506-.548-.506-.31 0-.547.225-.547.506v3.743h-.92c-.328 0-.604.267-.604.563v3.372c0 .3.276.567.605.567zm6.002-1.36h.852v2.102c0 .277.235.507.541.507.306 0 .541-.225.541-.507v-2.101h.87c.33 0 .589-.22.589-.517v-6.75c0-.3-.259-.615-.588-.615h-.87V4.507C12.541 4.23 12.305 4 12 4c-.306 0-.541.225-.541.507V6.51h-.852c-.33 0-.607.314-.607.615v6.75c0 .296.278.517.607.517z"/>
</svg>
