<svg xmlns="http://www.w3.org/2000/svg" xmlns:xlink="http://www.w3.org/1999/xlink" width="24" height="24" viewBox="0 0 24 24">
    <path fill="#000" d="M21.654 10.064l-.01.03-.004.02-.01.02-3.665 9.713 1.556 2.143c.183.252.123.612-.123.795-.257.188-.613.129-.796-.123l-1.565-2.148H6.953l-1.555 2.138c-.188.257-.544.311-.796.123-.256-.182-.31-.543-.123-.795l1.556-2.143-.005-.015-3.6-9.708-.005-.02L.4 9.432c-.301-.099-.464-.42-.365-.72.098-.297.414-.46.716-.361l2.024.656.03-.02 8.607-6.385.01-.004V.593c0-.312.257-.573.573-.573.316 0 .573.257.573.573v2l.01.005 8.726 6.38 1.936-.627c.3-.1.622.064.72.36.1.301-.069.622-.37.721l-1.936.632zm-10.232 1.753V4.958L4.988 9.723l6.434 2.094zm1.141-6.874v6.87l6.509-2.114-6.509-4.756zm6.775 5.872l-6.42 2.089 3.71 5.1 2.71-7.19zm-3.684 7.792L11.99 13.57l-3.66 5.037h7.324zm-8.281-.612l3.704-5.091-6.351-2.064 2.647 7.155z"/>
</svg>
