<svg xmlns="http://www.w3.org/2000/svg" xmlns:xlink="http://www.w3.org/1999/xlink" width="24" height="24" viewBox="0 0 24 24">
    <path fill="#000" d="M12.002 6c3.106 0 5.3 2.398 5.008 5.81 1.57-.04 3.99.644 3.99 3.188C21 16.65 19.588 18 17.848 18H6.152C4.416 18 3 16.655 3 14.998c0-2.398 2.23-3.285 3.99-3.188C6.842 8.195 8.98 6 12.002 6zM12 4c-3.673 0-6.662 2.793-6.856 6.304C2.787 10.715 1 12.709 1 15.114 1 17.813 3.258 20 6.04 20h11.92c2.786 0 5.04-2.19 5.04-4.887 0-2.4-1.787-4.398-4.144-4.809C18.662 6.794 15.673 4 12 4z"/>
</svg>
