<svg xmlns="http://www.w3.org/2000/svg" xmlns:xlink="http://www.w3.org/1999/xlink" width="24" height="24" viewBox="0 0 24 24">
    <path fill="#000" d="M11.998 0L1 6v12.133L11.998 24 23 18.133V6.064L11.998 0zM21 11.384L18 13V9.646L21 8v3.384zM8 11l3 1.689V16l-3-1.679V11zm1-1.54L11.93 8 15 9.536 12.046 11 9 9.46zm4 3.203L16 11v3.368L13 16v-3.337zM17.188 8L14 6.412 16.842 5 20 6.611 17.188 8zM15 3.493L11.95 5 9 3.537 12.061 2 15 3.493zM7.118 5L10 6.437 6.84 8 4 6.568 7.118 5zM6 9.696V13l-3-1.685V8l3 1.696zM3 14l3 1.696V19l-3-1.67V14zm5 5.33V16l3 1.696V21l-3-1.67zm5-1.662L16 16v3.3L13 21v-3.332zM18 19v-3.312L21 14v3.28L18 19z"/>
</svg>
