<svg xmlns="http://www.w3.org/2000/svg" xmlns:xlink="http://www.w3.org/1999/xlink" width="24" height="24" viewBox="0 0 24 24">
    <path d="M13.154 20.142v-7.518l6.538-3.741V16.4l-6.538 3.74zM4.308 16.4V8.883l6.538 3.74v7.519L4.308 16.4zM12 3.199l6.569 3.759-6.57 3.759-6.568-3.76L12 3.2zM22 16.4V7.599c0-.772-.425-1.487-1.12-1.885L13.19 1.313c-.731-.417-1.643-.417-2.373 0l-7.693 4.4C2.428 6.112 2 6.828 2 7.6V16.4c0 .772.425 1.488 1.119 1.885l7.693 4.4c.73.419 1.642.419 2.373 0l7.692-4.4c.696-.396 1.122-1.112 1.123-1.885z"/>
</svg>
