<svg xmlns="http://www.w3.org/2000/svg" xmlns:xlink="http://www.w3.org/1999/xlink" width="24" height="24" viewBox="0 0 24 24">
    <path fill="#000" d="M16.874 6.17c-.18.185-.423.277-.661.277-.238 0-.471-.087-.656-.267l-2.682-2.638v11.504c0 .515-.727.933-1.242.933h.31c-.516 0-.933-.418-.933-.933V3.517L8.284 6.204c-.364.36-.957.36-1.316-.01-.36-.369-.355-.957.01-1.316L11.932 0l4.93 4.853c.365.36.37.953.01 1.317zm3.138 1.953h-3.97c-.514 0-.932.418-.932.933 0 .515.418.933.933.933h3.036V22.11H4.866V9.984h3.026c.515 0 .933-.418.933-.933 0-.515-.418-.933-.933-.933h-3.96c-.514 0-.932.418-.932.933v13.982c0 .515.418.933.933.933h16.079c.515 0 .933-.418.933-.933V9.056c0-.515-.418-.933-.933-.933z"/>
</svg>
