<svg xmlns="http://www.w3.org/2000/svg" xmlns:xlink="http://www.w3.org/1999/xlink" width="24" height="24" viewBox="0 0 24 24">
    <path d="M20 2c1.105 0 2 .895 2 2v16c0 1.105-.895 2-2 2H4c-1.105 0-2-.895-2-2V4c0-1.105.895-2 2-2h16zm-8.474 3.082c-.607.254-.39 1.028-.281 1.154.11.126.301.34.318.45.016.111.05.422-.29.613-.337.191-.77.307-.75 1.005.007.28-.073.585-.124.585-.048 0-.352-.13-.48-.25-.303-.281-.48-.577-.58-.688-.101-.112-.767-.158-.945-.203-.177-.045-.438-.12-.388-.045.05.074.405.127.574.267.167.141.379.12.514.165.134.044.374.487.79 1.16.263.423.503.592.635.597.17.007.272-.003.441-.188.17-.184.247.144.212.307-.034.162-.565.972-.413 2.419.101.97.47 1.62.47 2.264 0 .414-.1 1.12 0 1.607.099.488.227.923.226 1.203 0 .281-.07.606-.037.917.033.31.284.69.592.548.095-.044.207-.008.309.018.158.04.296-.067.209-.283-.067-.165-.406-.275-.234-1.235.154-.861.38-1.153.416-2.407.01-.314.067-.625.171-.923.156-.446.38-1.169.486-1.89.173-1.167.089-1.05.359-1.168.27-.118.923-.853 1.093-1.355.17-.502.39-.428-.233-1.05-.622-.623-.84-1.289-1.21-1.364-.372-.075-1.115-.018-1.045-.55 0 0 .175-.125.26-.39.085-.267.08-.545.021-.744-.058-.2-.342-.857-1.086-.546zm2.129 3.392c.16.117.744.65.76.768.017.117-.138.826-.248.964-.11.14-.316.29-.507.19-.29-.148-.458-.689-.398-1.04.06-.352.154-.85.154-.85s.079-.15.239-.032z"/>
</svg>
