<svg xmlns="http://www.w3.org/2000/svg" xmlns:xlink="http://www.w3.org/1999/xlink" width="24" height="24" viewBox="0 0 24 24">
    <path fill="#000" d="M17.219 16.2h-.444c-1.941 0-2.899-.937-4.106-2.114-.54-.518-1.107-1.08-1.77-1.55.737-.492 1.326-1.08 1.866-1.621 1.182-1.155 2.113-2.09 4.006-2.09h.444v1.352l4.471-2.583-4.467-2.578v1.353h-.444c-2.899 0-4.4 1.476-5.727 2.802-1.204 1.182-2.161 2.113-4.107 2.113h-.32c-.418-.738-1.23-1.23-2.14-1.23-1.353 0-2.46 1.107-2.46 2.46s1.107 2.46 2.46 2.46c.91 0 1.696-.492 2.14-1.23h.32c1.893 0 2.829.935 4.006 2.09 1.278 1.252 2.877 2.83 5.824 2.83h.444v1.352l4.471-2.583-4.471-2.582v1.348h.004zM4.486 13.99c-.813 0-1.476-.664-1.476-1.476 0-.813.663-1.476 1.476-1.476.812 0 1.475.663 1.475 1.476 0 .812-.663 1.476-1.475 1.476z"/>
</svg>
