<svg xmlns="http://www.w3.org/2000/svg" xmlns:xlink="http://www.w3.org/1999/xlink" width="24" height="24" viewBox="0 0 24 24">
    <path fill="#000" d="M22 7.845L17.458 5v1.6H6.822C6.384 5.807 5.54 5.27 4.57 5.27 3.15 5.27 2 6.421 2 7.84c0 1.42 1.15 2.571 2.57 2.571.97 0 1.814-.537 2.252-1.33h10.627v1.6L22 7.845zM4.57 9.392c-.856 0-1.55-.695-1.55-1.551 0-.857.694-1.551 1.55-1.551.857 0 1.551.694 1.551 1.55 0 .857-.694 1.552-1.55 1.552zM22 16.683l-4.542-2.845v1.6H6.822c-.438-.792-1.282-1.33-2.252-1.33-1.42 0-2.57 1.151-2.57 2.57 0 1.42 1.15 2.571 2.57 2.571.97 0 1.814-.537 2.252-1.33h10.627v1.6L22 16.684zM4.57 18.23c-.856 0-1.55-.694-1.55-1.551s.694-1.551 1.55-1.551c.857 0 1.551.694 1.551 1.55 0 .858-.694 1.552-1.55 1.552z"/>
</svg>
