<svg xmlns="http://www.w3.org/2000/svg" xmlns:xlink="http://www.w3.org/1999/xlink" width="24" height="24" viewBox="0 0 24 24">
    <path fill="#000" d="M14.505 2.365c0 1.305-1.06 2.365-2.365 2.365-1.305 0-2.365-1.06-2.365-2.365C9.775 1.06 10.835 0 12.14 0c1.305 0 2.365 1.06 2.365 2.365zm-2.36 17.495c-1.14 0-2.07.925-2.07 2.07 0 1.14.925 2.07 2.07 2.07 1.14 0 2.07-.925 2.07-2.07-.005-1.145-.93-2.07-2.07-2.07zm9.78-6.235c-.815 0-1.475-.66-1.475-1.475 0-.815.66-1.475 1.475-1.475.815 0 1.475.655 1.475 1.475 0 .82-.66 1.475-1.475 1.475zm-17.2-1.475c0-1.305-1.06-2.365-2.365-2.365C1.055 9.785 0 10.84 0 12.15c0 1.305 1.06 2.365 2.365 2.365 1.305 0 2.36-1.06 2.36-2.365zM6.9 3.56c.925.925.925 2.42 0 3.345-.925.925-2.42.925-3.345 0-.925-.925-.925-2.42 0-3.345.925-.92 2.42-.92 3.345 0zm10.905 14.25c-.69.69-.69 1.815 0 2.505s1.815.69 2.505 0 .69-1.815 0-2.505-1.81-.69-2.505 0zm2.09-11.74c-.46.46-1.21.46-1.67 0-.46-.46-.46-1.21 0-1.67.46-.46 1.21-.46 1.67 0 .46.46.46 1.205 0 1.67zM6.9 17.39c-.925-.925-2.42-.925-3.345 0-.925.925-.925 2.42 0 3.345.925.925 2.42.925 3.345 0 .92-.925.92-2.42 0-3.345z"/>
</svg>
