<svg xmlns="http://www.w3.org/2000/svg" xmlns:xlink="http://www.w3.org/1999/xlink" width="24" height="24" viewBox="0 0 24 24">
    <path fill="#000" d="M13 10V8c0-.552-.448-1-1-1h-1V1c0-.265-.105-.52-.293-.707C10.52.105 10.265 0 10 0H3c-.265 0-.52.105-.707.293C2.105.48 2 .735 2 1v6H1c-.552 0-1 .448-1 1v2c0 .552.448 1 1 1h11c.552 0 1-.448 1-1zM9 6H4V2h5v4zm14 14h-1v-6c0-.265-.105-.52-.293-.707C21.52 13.105 21.265 13 21 13h-7c-.265 0-.52.105-.707.293-.188.187-.293.442-.293.707v6h-1c-.552 0-1 .448-1 1v2c0 .552.448 1 1 1h11c.552 0 1-.448 1-1v-2c0-.552-.448-1-1-1zm-3-1h-5v-4h5v4zM9.975 20H4c-.265 0-.52-.105-.707-.293C3.105 19.52 3 19.265 3 19v-2.5-3.445h2V18h4.975v2zm3.987-17H20c.265 0 .52.105.707.293.188.187.293.442.293.707v5.987h-2V5h-5.038V3z"/>
</svg>
