<svg xmlns="http://www.w3.org/2000/svg" xmlns:xlink="http://www.w3.org/1999/xlink" width="24" height="24" viewBox="0 0 24 24">
    <path fill="#000" d="M15.042 6.112S15.317 4.257 16.484 2l7.465 7.47c-2.267 1.157-4.148 1.406-4.148 1.406l-4.759-4.764zm-6.864 5.03l-3.271 8.79c-.056.152.132.274.25.162l4.158-4.158c.305-.305.499-.703.55-1.13.03-.235.132-.47.316-.648.438-.438 1.146-.438 1.58 0 .438.438.438 1.146 0 1.58-.184.183-.413.285-.648.316-.428.056-.825.244-1.13.55l-4.154 4.158c-.117.117.005.306.163.25l8.785-3.272 3.74-6.874-3.465-3.465-6.874 3.74zM4.892 21.418c.28-.036.474-.29.438-.57-.036-.28-.29-.474-.57-.439-.021 0-1.83.224-2.9-.718-.54-.474-.81-1.188-.81-2.115 0-1.732.947-2.95 1.956-4.245 1.096-1.4 2.334-2.996 2.334-5.386 0-1.34-.3-3.19-1.727-4.382-.882-.733-1.774-.86-1.81-.866-.28-.036-.534.158-.575.438-.036.28.158.535.438.571.107.015 2.65.433 2.65 4.23 0 2.043-1.03 3.362-2.115 4.759-1.07 1.37-2.17 2.787-2.17 4.87 0 1.24.392 2.212 1.161 2.885.974.856 2.309.994 3.078.994.352.005.591-.026.622-.026z"/>
</svg>
