<svg xmlns="http://www.w3.org/2000/svg" width="24" height="24" viewBox="0 0 24 24">
    <path fill="#000" d="M13.179 4.036v1.357c0 .374.304.678.678.678h4.072v4.75c0 .375.304.679.678.679h1.357c1.14 0 2.036.896 2.036 2.036 0 1.139-.896 2.035-2.036 2.035h-1.357a.679.679 0 0 0-.678.679V21H3v-4.071h.679a3.4 3.4 0 0 0 3.392-3.393 3.4 3.4 0 0 0-3.392-3.393H3V6.07h5.429a.679.679 0 0 0 .678-.678V4.036c0-1.14.897-2.036 2.036-2.036 1.14 0 2.036.896 2.036 2.036zm-5.71-.442v.719h-5.75A.719.719 0 0 0 1 5.03v5.75c0 .397.322.719.719.719h1.437c1.207 0 2.156.95 2.156 2.156 0 1.207-.949 2.156-2.156 2.156H1.72a.719.719 0 0 0-.719.72v5.75c0 .396.322.718.719.718h17.25a.719.719 0 0 0 .718-.719V17.25h.72A3.602 3.602 0 0 0 24 13.656a3.602 3.602 0 0 0-3.594-3.594h-.718v-5.03a.719.719 0 0 0-.72-.72h-4.312v-.718A3.602 3.602 0 0 0 11.062 0 3.602 3.602 0 0 0 7.47 3.594z"/>
</svg>
