<svg xmlns="http://www.w3.org/2000/svg" xmlns:xlink="http://www.w3.org/1999/xlink" width="24" height="24" viewBox="0 0 24 24">
    <path fill="#000" d="M16.938 10.832c2.553 0 4.632 2.08 4.632 4.632 0 .909-.261 1.758-.716 2.474l3.102 3.106-1.526 1.526-3.126-3.126c-.692.415-1.502.652-2.366.652-2.553 0-4.632-2.079-4.632-4.632 0-2.553 2.08-4.632 4.632-4.632zm-4.903 8.203c.258.343.557.676.896 1 .36.343.76.676 1.2 1H5.034v-2h7zm4.908-6.475c-1.6 0-2.903 1.304-2.903 2.904 0 1.6 1.303 2.904 2.903 2.904s2.904-1.304 2.904-2.904c0-1.6-1.304-2.904-2.904-2.904zm2.998-9.525v6.577c-.617-.266-1.284-.44-1.985-.498V5.02H2.025v11.052h8.577c.06.696.242 1.368.519 1.98H.035V3.035H19.94zm-12.77 3.89c.069-.424.68-.448.775-.024l1.017 4.494.657-1.684c.128-.326.592-.336.73-.01l.746 1.67h.697v.79h-.953c-.242 0-.321-.1-.39-.247-.07-.149-.445-1.023-.445-1.023l-.775 1.986c-.144.365-.667.32-.751-.055l-.86-3.684-.839 5.116c-.064.42-.666.45-.77.03l-.924-3.68-.365 1.315c-.04.138-.193.251-.336.251H3.343v-.79h.731l.642-2.479c.119-.38.662-.355.756.025l.859 3.195z"/>
</svg>
