<svg xmlns="http://www.w3.org/2000/svg" xmlns:xlink="http://www.w3.org/1999/xlink" width="24" height="24" viewBox="0 0 24 24">
    <path fill="#000" d="M18.686 1.111c1.278 0 2.314.974 2.314 2.176v17.537C21 22.026 19.964 23 18.686 23H5.314C4.036 23 3 22.026 3 20.824V6.865c0-.193.083-.377.229-.513L8.58 1.32c.126-.118.291-.191.468-.208zm0 1.45h-8.78v4.316c0 .4-.344.726-.77.726H4.542v13.221c0 .4.345.725.771.725h13.372c.426 0 .771-.324.771-.725V3.287c0-.4-.345-.725-.771-.725zM17.38 9v7.625H18V18H6v-1.375h.621v-3.959h3.056v-1.833h3.056V9h4.648zm-1.528 1.375h-1.592v6.25h1.592v-6.25zm-3.12 1.833h-1.528v4.417h1.528v-4.417zM9.677 14.04H8.15v2.584h1.528v-2.584zM8.364 3.594L5.628 6.152h2.736V3.594z"/>
</svg>
