<svg xmlns="http://www.w3.org/2000/svg" xmlns:xlink="http://www.w3.org/1999/xlink" width="24" height="24" viewBox="0 0 24 24">
    <path fill="#000" d="M20.356 17.15L13 19.82V9.584l7.356-2.608V17.15zm1.639-11.149c-.062-.313-.277-.562-.548-.644l-4.575-1.65-.066-.017H16.8c-.132-.037-.343-.07-.538.016L7.344 6.91c-.34.115-.578.452-.578.82v2.135c0 .49.377.874.859.874.48 0 .858-.383.858-.874V8.342l8.064-2.906 2.044.74-6.863 2.48c-.345.117-.576.447-.576.82v10.44l-7.436-2.704V6.788L12.3 3.69c.225-.086.403-.253.496-.472.09-.203.096-.43.018-.636-.071-.22-.22-.395-.422-.495-.21-.105-.447-.115-.67-.03L2.577 5.354c-.34.115-.577.453-.577.82v11.65c0 .374.232.703.572.818l9.155 3.303c.06.02.176.054.283.054h.114c.055 0 .1-.015.13-.028l9.169-3.307c.34-.116.577-.453.577-.82V6.078l-.005-.077z"/>
</svg>
