<svg xmlns="http://www.w3.org/2000/svg" xmlns:xlink="http://www.w3.org/1999/xlink" width="24" height="24" viewBox="0 0 24 24">
    <path fill="#000" d="M7.444 7.85h14.372c.193 0 .351.159.351.351v9.447c0 .193-.158.352-.351.352H7.45c-.091 0-.182-.04-.25-.102l-4.726-4.726c-.136-.137-.136-.358 0-.494l4.72-4.72c.068-.074.16-.108.25-.108zM6.19 6.318L.352 12.162c-.42.42-.42 1.1 0 1.52l5.844 5.844c.204.204.476.318.76.318h15.949c.596 0 1.078-.482 1.078-1.078V7.084c0-.596-.482-1.078-1.078-1.078H6.95c-.283-.006-.556.107-.76.312zm2.536 6.604c0 .828-.67 1.492-1.492 1.498-.828 0-1.498-.67-1.498-1.498s.67-1.498 1.492-1.498c.829 0 1.498.67 1.498 1.498z"/>
</svg>
