<svg xmlns="http://www.w3.org/2000/svg" xmlns:xlink="http://www.w3.org/1999/xlink" width="24" height="24" viewBox="0 0 24 24">
    <path fill="#000" d="M22.37 15.589c.876-1.368.431-3.235-.188-3.831.247-.758.471-2.198-.161-3.24 0 0-4.728-.004-4.791 0C17.993 5.236 18.329.014 14.99.014c-1.848 0-2.3 1.665-2.812 3.307C10.07 10.098 5.037 10.165 2 10.506V20.96c4.639 0 6.971.38 10.96 2.081 4.19 1.78 9.384 1.247 8.81-3.562 1.117-1.108 1.085-2.853.6-3.89zM20.8 10.11c.135 1.014-.345 2.145-1.44 2.145h-1.973c-.758 0-1.018-.62-1.018-1.117 0-.426.372-1.028 1.054-1.028H20.8zM3.777 19.258v-7.137c5.86-.502 8.762-4.06 9.968-7.823.377-1.167.485-2.773 1.485-2.468 1.081.328 1.05 3.463.22 6.478-.354 1.288-1.292 2.369-.493 3.916-1.418.49-1.88 2.912-.691 3.921-.947.924-.915 2.772.233 3.656-.43.512-.61 1.095-.552 1.723-1.92-.673-5.284-2.266-10.17-2.266zm14.432 2.997h-1.48c-.727 0-1.055-.48-1.055-.965 0-.574.368-1.08 1.054-1.08h3.302c-.058.78-.408 2.045-1.821 2.045zm1.099-3.297h-2.983c-.727 0-1.054-.628-1.054-1.081 0-.453.327-1.081 1.054-1.081h4.575c.126 1.076-.394 2.162-1.592 2.162zm.39-3.396h-3.373c-.727 0-1.054-.646-1.054-1.081 0-.444.327-1.063 1.054-1.063h4.786c.135.995-.323 2.144-1.413 2.144z"/>
</svg>
