<svg xmlns="http://www.w3.org/2000/svg" xmlns:xlink="http://www.w3.org/1999/xlink" width="24" height="24" viewBox="0 0 24 24">
    <path fill="#000" d="M11.99 2C17.52 2 22 6.48 22 12s-4.48 10-10.01 10C6.47 22 2 17.52 2 12S6.47 2 11.99 2zM12 4c-4.42 0-8 3.58-8 8s3.58 8 8 8 8-3.58 8-8-3.58-8-8-8zm0 10l.24.005c2.226.096 4.108 1.516 4.88 3.495h-1.67c-.7-1.19-1.97-2-3.45-2-1.48 0-2.76.81-3.45 2H6.88C7.68 15.45 9.67 14 12 14zm3.5-6c.828 0 1.5.672 1.5 1.5s-.672 1.5-1.5 1.5-1.5-.672-1.5-1.5.672-1.5 1.5-1.5zm-7 0c.828 0 1.5.672 1.5 1.5S9.328 11 8.5 11 7 10.328 7 9.5 7.672 8 8.5 8z"/>
</svg>
