<svg xmlns="http://www.w3.org/2000/svg" xmlns:xlink="http://www.w3.org/1999/xlink" width="24" height="24" viewBox="0 0 24 24">
    <path d="M9.122 4.392c-1.133 1.741-.566 4.766 1.322 8.25.85 1.558.662 2.75.284 3.483-.945 2.017-3.495 2.567-6.14 3.208-1.888.459-1.7.825-1.7 3.667H1v-1.1c0-2.292.189-3.667 3.022-4.308 3.211-.734 6.328-1.375 4.817-4.034C4.306 5.492 7.517 1 12.333 1 15.45 1 18 2.925 18 6.683c0 3.209-1.889 6.234-2.267 7.15H13.75c.378-1.375 2.361-4.033 2.361-7.15 0-4.766-5.572-4.583-6.989-2.291zm7.302 16.468c-.382-.258-.572-.687-.286-1.115C16.328 19.487 19 17 19 17s-1.145 3.26-1.336 3.516c-.286.515-.858.6-1.24.344zM17.5 14c-3.016 0-5.5 2.531-5.5 5.625 0 1.219.355 2.344 1.065 3.281l.088.094 1.153-1.031-.088-.094c-.444-.656-.71-1.5-.71-2.344 0-2.25 1.774-4.031 3.992-4.031s3.992 1.781 3.992 4.031c0 .844-.266 1.594-.71 2.344l-.088.094L21.847 23l.088-.094C22.645 21.97 23 20.75 23 19.625 22.911 16.531 20.516 14 17.5 14z"/>
</svg>
