<svg xmlns="http://www.w3.org/2000/svg" xmlns:xlink="http://www.w3.org/1999/xlink" width="24" height="24" viewBox="0 0 24 24">
    <path d="M20.087 17.588c-3.153-.728-6.088-1.366-4.666-4.05C19.747 5.368 16.568 1 12 1 7.341 1 4.24 5.537 8.579 13.538c1.465 2.7-1.581 3.338-4.666 4.05C1.183 18.218 1 19.552 1 21.862L1.005 23h1.828c0-2.873-.114-3.254 1.685-3.67 2.614-.602 5.081-1.17 5.981-3.167.33-.73.543-1.928-.31-3.498-1.886-3.482-2.363-6.498-1.304-8.273 1.241-2.086 4.974-2.076 6.203-.032 1.054 1.752.586 4.785-1.286 8.32-.834 1.576-.615 2.771-.284 3.496.907 1.987 3.398 2.562 6.035 3.17 1.723.4 1.614.809 1.614 3.654h1.828L23 21.862c0-2.31-.182-3.643-2.913-4.274z"/>
</svg>
