<svg xmlns="http://www.w3.org/2000/svg" xmlns:xlink="http://www.w3.org/1999/xlink" width="24" height="24" viewBox="0 0 24 24">
    <path fill="#000" d="M16.311 17.376h2.183c-.892 1.076-2.04 1.922-3.357 2.455.221-.328.428-.685.612-1.064.21-.432.396-.895.562-1.391zm-3.665 0h2.157c-.103.27-.208.529-.325.77-.546 1.12-1.194 1.832-1.832 2.135v-2.905zm-3.579 0h2.159v2.905c-.64-.303-1.288-1.014-1.834-2.135-.117-.241-.221-.5-.324-.77zm-3.689 0H7.56c.167.496.353.959.562 1.39.184.38.391.737.614 1.065-1.316-.533-2.465-1.38-3.356-2.455zm11.747-4.731h3.297c-.098 1.19-.44 2.312-.976 3.312H16.71c.232-1.026.373-2.14.415-3.312zm-4.48 0h3.062c-.048 1.19-.212 2.313-.46 3.312h-2.601v-3.312zm-4.48 0h3.06v3.312h-2.6c-.25-1-.414-2.122-.46-3.312zm-4.715 0h3.296c.041 1.172.182 2.286.414 3.312H4.425c-.535-1-.878-2.121-.975-3.312zm13.26-4.731h2.736c.537 1 .878 2.12.976 3.312h-3.297c-.041-1.17-.183-2.287-.415-3.312zm-4.065 0h2.603c.248 1 .412 2.12.459 3.312h-3.062V7.914zm-4.02 0h2.6v3.312h-3.06c.046-1.191.21-2.311.46-3.312zm-4.2 0H7.16c-.232 1.025-.372 2.142-.414 3.312H3.45c.096-1.192.438-2.311.974-3.312zm10.718-3.866c1.311.53 2.453 1.377 3.342 2.447h-2.174c-.166-.497-.35-.966-.562-1.397-.181-.375-.386-.726-.606-1.05zm-6.416 0c-.22.324-.424.675-.606 1.05-.21.43-.396.9-.562 1.397H5.386c.89-1.07 2.03-1.916 3.341-2.447zm3.918-.451c.64.3 1.287 1 1.834 2.12.117.24.222.507.325.778h-2.159V3.597zm-1.42 0v2.898H9.069c.103-.271.207-.537.325-.777.545-1.121 1.193-1.82 1.832-2.121zM11.936 2C6.457 2 2 6.457 2 11.936c0 5.478 4.458 9.935 9.936 9.935 5.48 0 9.937-4.457 9.937-9.935 0-5.48-4.457-9.936-9.937-9.936z"/>
</svg>
