<svg xmlns="http://www.w3.org/2000/svg" xmlns:xlink="http://www.w3.org/1999/xlink" width="24" height="24" viewBox="0 0 24 24">
    <path fill="#000" d="M12 2c-.658 0-1.316.333-1.692.998L1.265 19.005C.513 20.335 1.453 22 2.957 22h18.086c1.504 0 2.444-1.665 1.692-2.995L13.692 2.998C13.316 2.333 12.658 2 12 2zm8.622 17.51c.092.163-.023.367-.207.367H3.585c-.184 0-.299-.204-.207-.366L11.801 4.6c.089-.157.309-.157.398 0l8.423 14.91zm-8.656-4.546c-.507 0-.852-.426-.906-.927l-.454-4.131c-.072-.723.671-1.39 1.36-1.39.689 0 1.432.667 1.342 1.39l-.435 4.131c-.055.5-.399.927-.907.927zm0 1.389c.744 0 1.342.612 1.342 1.371 0 .76-.598 1.39-1.342 1.39-.743 0-1.36-.63-1.36-1.39 0-.759.617-1.371 1.36-1.371z"/>
</svg>
