<svg xmlns="http://www.w3.org/2000/svg" xmlns:xlink="http://www.w3.org/1999/xlink" width="24" height="24" viewBox="0 0 24 24">
    <path d="M22.477 21.953H2.047V1.523c0-.288-.235-.523-.524-.523C1.235 1 1 1.235 1 1.523v20.954c0 .288.235.523.523.523h20.954c.288 0 .523-.235.523-.523 0-.294-.24-.524-.523-.524zM12 11h1v1h-1v-1zm-3 4h1v1H9v-1zm9 0h1v1h-1v-1zm-7 5h1v1h-1v-1zm-4 0h1v1H7v-1zm-2 0h1v1H5v-1zm-2 0h1v1H3v-1zm6 0h1v1H9v-1zm4 0h1v1h-1v-1zm2 0h1v1h-1v-1zm2 0h1v1h-1v-1zm2 0h1v1h-1v-1zm2 0h1v1h-1v-1zm-1-9h1v1h-1v-1zM4 17h1v1H4v-1zm10 0h1v1h-1v-1zm-9-6h1v1H5v-1zm11-4h1v1h-1V7zm-3 5h1v1h-1v-1zm-3 4h1v1h-1v-1zm9 0h1v1h-1v-1zm-7 5h1v1h-1v-1zm-6 0h1v1H6v-1zm-2 0h1v1H4v-1zm6 0h1v1h-1v-1zm4 0h1v1h-1v-1zm2 0h1v1h-1v-1zm2 0h1v1h-1v-1zm2 0h1v1h-1v-1zm2 0h1v1h-1v-1zm-1-9h1v1h-1v-1zM5 18h1v1H5v-1zm10 0h1v1h-1v-1zm-9-6h1v1H6v-1zm11-4h1v1h-1V8zm-4 2h1v1h-1v-1zm-3 4h1v1h-1v-1zm9 0h1v1h-1v-1zm-7 5h1v1h-1v-1zm-6 0h1v1H6v-1zm-2 0h1v1H4v-1zm6 0h1v1h-1v-1zm4 0h1v1h-1v-1zm2 0h1v1h-1v-1zm2 0h1v1h-1v-1zm2 0h1v1h-1v-1zm2 0h1v1h-1v-1zm-1-9h1v1h-1v-1zM5 16h1v1H5v-1zm10 0h1v1h-1v-1zm-9-6h1v1H6v-1zm11-4h1v1h-1V6zm-6 4h1v1h-1v-1zm-3 4h1v1H8v-1zm9 0h1v1h-1v-1zM2 19h1v1H2v-1zm6 0h1v1H8v-1zm11-9h1v1h-1v-1zM3 16h1v1H3v-1zm10 0h1v1h-1v-1zm-9-6h1v1H4v-1zm11-4h1v1h-1V6zm-4 6h1v1h-1v-1zm-3 4h1v1H8v-1zm9 0h1v1h-1v-1zM2 21h1v1H2v-1zm6 0h1v1H8v-1zm11-9h1v1h-1v-1zM3 18h1v1H3v-1zm10 0h1v1h-1v-1zm-9-6h1v1H4v-1zm11-4h1v1h-1V8z"/>
</svg>
