<svg xmlns="http://www.w3.org/2000/svg" xmlns:xlink="http://www.w3.org/1999/xlink" width="24" height="24" viewBox="0 0 24 24">
    <path fill="#000" d="M20.775 18.395c.141.17.22.383.225.605v1c0 1.822-3.533 3-9 3-5.467 0-9-1.178-9-3v-1c.004-.222.084-.435.225-.605C5.073 19.445 8.038 20 12 20c3.962 0 6.927-.555 8.775-1.605zM12 15c-3.962 0-6.927-.555-8.775-1.605-.141.17-.22.383-.225.605v1c0 1.822 3.533 3 9 3 5.467 0 9-1.178 9-3v-1c-.004-.222-.084-.435-.225-.605C18.927 14.445 15.962 15 12 15zm0-14C6.533 1 3 2.178 3 4v1c0 1.822 3.533 3 9 3 5.467 0 9-1.178 9-3V4c0-1.822-3.533-3-9-3zm0 9c-3.962 0-6.927-.555-8.775-1.605-.141.17-.22.383-.225.605v1c0 1.822 3.533 3 9 3 5.467 0 9-1.178 9-3V9c-.004-.222-.084-.435-.225-.605C18.927 9.445 15.962 10 12 10z"/>
</svg>
