<svg xmlns="http://www.w3.org/2000/svg" xmlns:xlink="http://www.w3.org/1999/xlink" width="24" height="24" viewBox="0 0 24 24">
    <path d="M18.432 20.81v-3.415l2.895-1.51v3.228l-2.895 1.697zm-4.234-4.925l2.895 1.51v3.415l-2.895-1.697v-3.228zm3.564-3.065l3.075 1.802-3.074 1.603-3.076-1.603 3.075-1.802zm4.758.839l-4.271-2.505c-.151-.088-.32-.132-.487-.132-.168 0-.336.044-.486.132l-4.272 2.505c-.297.174-.48.494-.48.841v5.022c0 .347.183.667.48.842l4.272 2.504c.15.088.318.132.486.132.168 0 .336-.044.487-.132l4.27-2.504c.298-.175.48-.495.48-.842V14.5c0-.347-.182-.667-.48-.841zM6.908 20.81v-3.415l2.895-1.51v3.228L6.908 20.81zm-4.234-4.925l2.895 1.51v3.415l-2.895-1.697v-3.228zm3.564-3.065l3.075 1.802-3.074 1.603-3.075-1.603 3.074-1.802zm4.758.839l-4.271-2.505c-.151-.088-.32-.132-.487-.132-.168 0-.336.044-.486.132L1.48 13.659c-.298.174-.481.494-.481.841v5.022c0 .347.183.667.48.842l4.272 2.504c.15.088.318.132.486.132.168 0 .336-.044.487-.132l4.27-2.504c.299-.175.48-.495.48-.842V14.5c0-.347-.181-.667-.48-.841zm1.674-2.871V7.372l2.895-1.509v3.228l-2.895 1.697zM8.436 5.863l2.895 1.51v3.415L8.436 9.091V5.863zM12 2.797L15.075 4.6 12 6.203 8.925 4.6 12 2.797zm4.758.839l-4.271-2.504C12.336 1.044 12.167 1 12 1c-.168 0-.336.044-.486.132L7.243 3.636c-.298.175-.481.495-.481.842V9.5c0 .347.183.667.48.841l4.272 2.504c.15.089.318.133.486.133.168 0 .336-.044.487-.133l4.27-2.504c.298-.174.48-.494.48-.841V4.478c0-.347-.182-.667-.48-.842z"/>
</svg>
