<svg xmlns="http://www.w3.org/2000/svg" xmlns:xlink="http://www.w3.org/1999/xlink" width="24" height="24" viewBox="0 0 24 24">
    <path d="M6.635 2C4.828 2 3.359 3.422 3.359 5.17c0 1.749 1.47 3.171 3.276 3.171 1.806 0 3.276-1.422 3.276-3.17C9.911 3.422 8.441 2 6.635 2m11.089 20C19.53 22 21 20.578 21 18.83c0-1.749-1.47-3.171-3.276-3.171-1.807 0-3.277 1.422-3.277 3.17 0 1.749 1.47 3.171 3.277 3.171m-4.789-3.17c0 .459.091.894.22 1.313h-5.83c-5.767 0-5.767-9.253 0-9.253h8.458c3.46 0 3.46-4.809 0-4.809h-4.455c.06-.295.095-.599.095-.91 0-.46-.09-.895-.22-1.314h4.965c6.092 0 6.092 9.253 0 9.253H7.713c-3.075 0-3.075 4.809 0 4.809h5.317c-.06.295-.095.599-.095.91"/>
</svg>
