<svg xmlns="http://www.w3.org/2000/svg" xmlns:xlink="http://www.w3.org/1999/xlink" width="24" height="24" viewBox="0 0 24 24">
    <path d="M10.54 15.163c.438 0 .701-.236.843-.41l.566.75c-.202.25-.681.568-1.496.568-1.449 0-2.016-.999-2.016-2.447 0-1.533.708-2.546 2.089-2.546.931 0 1.348.423 1.477.568l-.674.771c-.156-.194-.378-.444-.876-.444-.634 0-.957.493-.957 1.581 0 1.005.336 1.61 1.044 1.61zm-4.313.05c.141 0 .35-.029.444-.07v-1.644h1.032v2.142c-.344.243-.816.43-1.692.43-1.341 0-2.008-.833-2.008-2.455 0-1.754.99-2.545 2.244-2.545.93 0 1.354.41 1.482.561l-.66.743c-.175-.194-.425-.389-.862-.389-.62 0-1.146.354-1.146 1.505 0 1.2.377 1.721 1.166 1.721zM3 8v10c0 1.1.9 2 2 2h6c1.1 0 2-.9 2-2V8H3zm11-3h-3l-1-1H6L5 5H2v2h12V5zm1 9h6v-2h-6v2zm0-4h7V8h-7v2zm0 8h4v-2h-4v2z"/>
</svg>
