<svg xmlns="http://www.w3.org/2000/svg" width="24" height="24" viewBox="0 0 24 24">
    <path fill="#000" d="M3.5 6.5v3h3v-3h-3zM3 5h4a1 1 0 0 1 1 1v4a1 1 0 0 1-1 1H3a1 1 0 0 1-1-1V6a1 1 0 0 1 1-1zm.5 9.5v3h3v-3h-3zM3 13h4a1 1 0 0 1 1 1v4a1 1 0 0 1-1 1H3a1 1 0 0 1-1-1v-4a1 1 0 0 1 1-1zm7.5-6.5v3h3v-3h-3zM10 5h4a1 1 0 0 1 1 1v4a1 1 0 0 1-1 1h-4a1 1 0 0 1-1-1V6a1 1 0 0 1 1-1zm.5 9.5v3h3v-3h-3zM10 13h4a1 1 0 0 1 1 1v4a1 1 0 0 1-1 1h-4a1 1 0 0 1-1-1v-4a1 1 0 0 1 1-1zm7.5-6.5v3h3v-3h-3zM17 5h4a1 1 0 0 1 1 1v4a1 1 0 0 1-1 1h-4a1 1 0 0 1-1-1V6a1 1 0 0 1 1-1zm.5 9.5v3h3v-3h-3zM17 13h4a1 1 0 0 1 1 1v4a1 1 0 0 1-1 1h-4a1 1 0 0 1-1-1v-4a1 1 0 0 1 1-1z"/>
</svg>
