<svg xmlns="http://www.w3.org/2000/svg" width="24" height="24" viewBox="0 0 24 24">
    <path fill="#000" d="M11.221 19H10l2.774-9H14l-2.779 9zm-2.227-3.545l-2.323-1.458L9 12.552V11l-4 2.496v1.008L8.994 17v-1.545zM19 13.494L15 11v1.55l2.332 1.444L15 15.45V17l4-2.494v-1.012zm4-11.118v19.248c0 .758-.618 1.376-1.376 1.376H2.376A1.378 1.378 0 0 1 1 21.624V2.376C1 1.618 1.618 1 2.376 1h19.248C22.382 1 23 1.618 23 2.376zM21 7H3v13.612a.4.4 0 0 0 .408.388h17.184a.4.4 0 0 0 .408-.388V7zm-.004-3.667c0-.183-.184-.333-.408-.333H3.408C3.184 3 3 3.15 3 3.333V5h18V3.333h-.004z"/>
</svg>
