<svg xmlns="http://www.w3.org/2000/svg" xmlns:xlink="http://www.w3.org/1999/xlink" width="24" height="24" viewBox="0 0 24 24">
    <path fill="#000" d="M22.021 12.489L17.48 9.625v1.615h-.705c-1.959 0-2.925-.95-4.143-2.145-1.339-1.347-2.854-2.846-5.78-2.846h-.128C6.284 5.504 5.473 5 4.552 5 3.16 5 2.026 6.142 2.026 7.542s1.134 2.543 2.526 2.543c.961 0 1.799-.544 2.224-1.343h.076c1.91 0 2.854.95 4.041 2.123.545.549 1.14 1.147 1.884 1.646-.67.473-1.241 1.048-1.786 1.575-1.214 1.2-2.18 2.145-4.144 2.145H6.76c-.43-.785-1.259-1.316-2.212-1.316-1.391 0-2.526 1.142-2.526 2.543 0 1.4 1.135 2.542 2.526 2.542.935 0 1.75-.513 2.19-1.276h.11c2.978 0 4.587-1.596 5.877-2.872 1.192-1.173 2.131-2.123 4.041-2.123h.705v1.614l4.551-2.854zM4.551 9.108c-.855 0-1.55-.7-1.55-1.561s.695-1.561 1.55-1.561c.856 0 1.552.7 1.552 1.56 0 .862-.696 1.562-1.551 1.562zm0 9.915c-.855 0-1.55-.7-1.55-1.56 0-.862.695-1.562 1.55-1.562.856 0 1.552.7 1.552 1.561 0 .86-.696 1.561-1.551 1.561z"/>
</svg>
