<svg xmlns="http://www.w3.org/2000/svg" xmlns:xlink="http://www.w3.org/1999/xlink" width="24" height="24" viewBox="0 0 24 24">
    <path fill="#000" d="M18.341 4c.134 0 .26.062.34.168l1.913 2.503c.099.13.116.304.044.45-.073.146-.222.238-.385.238h-1.055v9.858h1.055c.163 0 .312.092.385.238.072.146.055.32-.044.45l-1.912 2.503c-.082.106-.207.168-.341.168-.134 0-.26-.062-.34-.168l-1.913-2.503c-.099-.13-.116-.304-.044-.45.073-.146.222-.238.385-.238h1.055V7.359h-1.055c-.163 0-.312-.092-.385-.238-.072-.146-.055-.32.044-.45L18 4.168c.082-.106.207-.168.341-.168zm-3.334 1v3H10.5v12h-3V8H3.03V5h11.977z"/>
</svg>
