<svg xmlns="http://www.w3.org/2000/svg" xmlns:xlink="http://www.w3.org/1999/xlink" width="24" height="24" viewBox="0 0 24 24">
    <path fill="#000" d="M5.846 10C4.825 10 4 10.825 4 11.846c0 1.022.825 1.846 1.846 1.846 1.022 0 1.846-.824 1.846-1.846 0-1.021-.824-1.846-1.846-1.846zm12.308 0c-1.022 0-1.846.825-1.846 1.846 0 1.022.824 1.846 1.846 1.846 1.021 0 1.846-.824 1.846-1.846C20 10.825 19.175 10 18.154 10zM12 10c-1.022 0-1.846.825-1.846 1.846 0 1.022.824 1.846 1.846 1.846 1.022 0 1.846-.824 1.846-1.846C13.846 10.825 13.022 10 12 10z"/>
</svg>
