<svg xmlns="http://www.w3.org/2000/svg" width="24" height="24" viewBox="0 0 24 24">
    <path fill="#000" d="M4.372 19.408h15.256V4.064a.279.279 0 0 0-.278-.279h-8.975v3.78a2.13 2.13 0 0 1-2.128 2.127H4.372v9.716zM8.589 4.554L5.237 7.906h3.01a.343.343 0 0 0 .342-.342v-3.01zm12.825 14.854H23v1.786H1v-1.786h1.586V8.895c0-.556.217-1.08.61-1.474l4.81-4.81c.395-.394.919-.61 1.476-.61h9.868c1.139 0 2.064.925 2.064 2.063v15.344zm-7.529-3.938h1.326V9.22h-1.326v6.25zm-2.547 0h1.273v-4.417h-1.273v4.417zm-2.547 0h1.273v-2.584H8.791v2.584zm7.693-7.625v7.625H17v1.375H7V15.47h.518v-3.959h2.546V9.678h2.547V7.845h3.873z"/>
</svg>
