<svg xmlns="http://www.w3.org/2000/svg" xmlns:xlink="http://www.w3.org/1999/xlink" width="24" height="24" viewBox="0 0 24 24">
    <path fill="#000" d="M9 12.949L14.179 10 15 11.032 9.787 14 9 12.949zM16.187 12L11 14.959 11.78 16 17 13.027 16.187 12zm3.423 5.047c-1.493.977 0 0 0 0 0 .005-8.718 5.5-8.718 5.5-1.356.803-2.963.48-3.959-.511-1.434-1.433-1.183-3.861.544-4.984l.99 1.273c-1.502.799-.922 3.072.763 3.072 1.338 0 2.11-1.538 1.302-2.606 0 0-5.394-6.897-6.74-8.586-1.394-1.766-.887-4.126 1.04-5.052l7.613-3.893v.004c1.407-.625 3.092-.114 3.896 1.255.78 1.333.456 3.072-.832 4.021l-7.525 4.25-.996-1.278c1.502-.804.918-3.067-.767-3.067-1.142 0-2.26 1.373-1.17 2.775 1.316 1.68 6.65 8.47 6.65 8.47.48.571.735 1.265.758 1.973 0 0 5.33-3.36 6.151-3.885.85-.543 1.005-1.57.38-2.295-.015-.014-4.166-5.108-4.166-5.108l1.389-.835s3.055 3.752 4.164 5.107c1.074 1.297.722 3.424-.767 4.4zM14.83 3.34c-.378-.804-1.223-1.021-1.86-.69L8 5.47c.903.641 1.477 1.77 1.45 3.029l4.833-3.034c.752-.484.872-1.431.547-2.127z"/>
</svg>
