<svg xmlns="http://www.w3.org/2000/svg" xmlns:xlink="http://www.w3.org/1999/xlink" width="24" height="24" viewBox="0 0 24 24">
    <path fill="#000" d="M17.173 11.9l-1.867-1.8L7.943 3 6.625 4.27l2.594 2.502-5.392 5.039c-1.103 1.06-1.103 2.727 0 3.79l4.754 4.584c.526.507 1.21.796 1.929.815h.069c.703 0 1.349-.256 1.837-.723l4.753-4.583c1.107-1.07 1.107-2.73.004-3.794M5.258 13.265L10.528 8l2.156 2.223 1.212 1.249 1.823 1.875c.187.193.281.421.281.653H5.006c-.03-.259.045-.518.252-.735M21 19.331c0 .917-.901 1.669-2 1.669s-2-.752-2-1.669S19 16 19 16s2 2.414 2 3.331"/>
</svg>
