<svg xmlns="http://www.w3.org/2000/svg" xmlns:xlink="http://www.w3.org/1999/xlink" width="24" height="24" viewBox="0 0 24 24">
    <path fill="#000" d="M3.582 20.136c1.042 1.074 2.9.911 3.866-.065l6.873-6.945c.106 0 3.198 1.066 5.24-1.285 1.544-1.775 1.501-4.126 1.42-4.577-.076-.404-.442-.71-.859-.327l-2.148 2.17c-.523.58-2.113 1.04-3.113 0-.846-.88-.753-2.277 0-3.146l2.148-2.17c.4-.49.094-.79-.213-.868-.71-.172-3.232.064-4.78 1.624-1.774 1.793-1.131 4.78-1.131 4.78l-6.98 7.053c-1.076 1.087-1.173 2.81-.323 3.756z"/>
</svg>
