<svg xmlns="http://www.w3.org/2000/svg" xmlns:xlink="http://www.w3.org/1999/xlink" width="24" height="24" viewBox="0 0 24 24">
    <path fill="#000" d="M18.623 14.55c1.31 0 2.377-1.119 2.377-2.502 0-1.378-1.063-2.5-2.377-2.5-1.013 0-1.875.673-2.214 1.615h-4.972c.038.273.063.55.063.833 0 .281-.025.559-.063.832h4.943c.314 1 1.192 1.722 2.243 1.722m-5.424 4.21c-.067.233-.117.48-.117.739 0 1.378 1.063 2.501 2.377 2.501 1.31 0 2.377-1.118 2.377-2.501 0-1.383-1.063-2.501-2.377-2.501-.485 0-.937.154-1.314.418l-3.323-2.62c-.255.493-.578.938-.95 1.33l3.327 2.633m4.633-14.258C17.832 3.123 16.769 2 15.455 2c-1.31 0-2.377 1.118-2.377 2.501 0 .26.05.506.117.74L9.868 7.874c.372.392.695.841.95 1.33l3.323-2.62c.376.264.828.418 1.318.418 1.31 0 2.373-1.118 2.373-2.5M5.959 7.833c2.185 0 3.96 1.867 3.96 4.166 0 2.299-1.775 4.166-3.96 4.166C3.77 16.166 2 14.299 2 12c0-2.299 1.77-4.166 3.959-4.166"/>
</svg>
