<svg xmlns="http://www.w3.org/2000/svg" xmlns:xlink="http://www.w3.org/1999/xlink" width="24" height="24" viewBox="0 0 24 24">
    <path fill="#000" d="M14.72 7.917L11.98 5.224 9.273 7.891c-.112.106-.288.106-.396 0L8.081 7.1c-.108-.11-.108-.285 0-.391l3.68-3.62c.121-.119.32-.119.444 0l3.711 3.65c.112.106.112.284 0 .39l-.796.792c-.112.106-.289.106-.4-.004zm-5.843 8.166l-.796.79c-.108.11-.108.285 0 .391l3.71 3.647c.121.119.32.119.444 0l3.681-3.617c.112-.106.112-.285 0-.39l-.796-.791c-.108-.11-.289-.11-.396 0l-2.708 2.664-2.738-2.694c-.112-.11-.289-.11-.4 0z"/>
</svg>
