<svg xmlns="http://www.w3.org/2000/svg" xmlns:xlink="http://www.w3.org/1999/xlink" width="24" height="24" viewBox="0 0 24 24">
    <path fill="#000" d="M6.222 5C4.997 5 4 5.997 4 7.222c0 1.226.997 2.222 2.222 2.222 1.226 0 2.222-.996 2.222-2.222C8.444 5.997 7.454 5 6.222 5zM12 14.75c3.64 0 6.75 2.21 8 5.333h-2.61c-1.093-1.813-3.078-3.047-5.39-3.047-2.313 0-4.313 1.234-5.39 3.047H4c1.25-3.123 4.36-5.333 8-5.333zM17.778 5C19.014 5 20 5.997 20 7.222c0 1.226-.997 2.222-2.222 2.222-1.226 0-2.222-.996-2.222-2.222 0-1.225.996-2.222 2.222-2.222z"/>
</svg>
