<svg xmlns="http://www.w3.org/2000/svg" xmlns:xlink="http://www.w3.org/1999/xlink" width="24" height="24" viewBox="0 0 24 24">
    <path fill="#000" d="M13 18.083l-2.178 1.291c-2.175 1.288-4.957.525-6.212-1.71-1.255-2.23-.511-5.085 1.664-6.373L8.455 10l.96 1.707-2.181 1.291c-1.252.743-1.684 2.393-.96 3.677.723 1.288 2.332 1.732 3.587.986l2.179-1.288c0 .003.96 1.71.96 1.71zM11.292 6.274L10 8.454l1.707.96L13 7.232c.743-1.253 2.394-1.685 3.68-.961 1.288.724 1.728 2.333.988 3.59l-1.292 2.178 1.708.961 1.292-2.176c1.288-2.175.52-4.958-1.708-6.214-2.232-1.256-5.087-.511-6.375 1.664zM16 19.813l-.767.187L15 17.187l.767-.187.233 2.813zm4-5.344L19.809 16 17 15.53l.187-1.53 2.813.47zm-4 2.484l.953-.953L19 18.047l-.957.953C18.047 19 16 16.953 16 16.953z"/>
</svg>
