<svg xmlns="http://www.w3.org/2000/svg" xmlns:xlink="http://www.w3.org/1999/xlink" width="24" height="24" viewBox="0 0 24 24">
    <path d="M15.13 7.715L9.847 12.97c-.436.75-.184 1.706.565 2.143.748.436 1.64.352 2.076-.397l2.642-7zm5.945-1.635c1.215 1.932 1.784 4.148 1.651 6.415l-2.242-.304c.065-1.728-.393-3.422-1.326-4.905-2.529-4.019-7.855-5.23-11.872-2.703-4.019 2.528-5.23 7.855-2.703 11.873.933 1.483 2.262 2.63 3.848 3.32l-.695 2.151c-2.104-.862-3.855-2.335-5.069-4.265C-.526 12.587 1.005 5.86 6.08 2.667 7.874 1.538 9.875 1 11.853 1c3.617 0 7.158 1.8 9.222 5.08zM18.04 19.662c-1.099 0-2-.9-2-2s.901-2 2-2c1.101 0 2 .9 2 2s-.899 2-2 2zm3.75-2c0-.22-.029-.42-.059-.63l1.14-1.01-1-1.73-1.45.49c-.32-.27-.68-.48-1.08-.63l-.3-1.49h-2l-.3 1.49c-.4.15-.76.36-1.08.63l-1.45-.49-1 1.73 1.14 1.01c-.03.21-.06.41-.06.63 0 .22.03.42.06.63l-1.14 1.01 1 1.73 1.45-.49c.32.27.68.48 1.08.63l.3 1.49h2l.3-1.49c.4-.15.76-.36 1.08-.63l1.45.49 1-1.73-1.14-1.01c.03-.21.06-.41.06-.63z"/>
</svg>
