<svg xmlns="http://www.w3.org/2000/svg" xmlns:xlink="http://www.w3.org/1999/xlink" width="24" height="24" viewBox="0 0 24 24">
    <path fill="#000" d="M15.009 1.043c1.104 0 2 .895 2 2v5.965h-1.88V3.043H5v18.006h4l2.063 2H5c-1.1 0-2-.9-2-2V3.043c0-1.1.9-2 2-2zM16 11c3.312.004 5.996 2.688 6 6 0 3.314-2.686 6-6 6s-6-2.686-6-6 2.686-6 6-6zm-2.756 8H12c.469.86 1.164 1.556 2 2-.332-.63-.586-1.301-.756-2zM17 19h-2c.205.742.546 1.424 1 2 .454-.576.795-1.258 1-2zm3 0h-1.244c-.17.699-.424 1.37-.756 2 .836-.444 1.531-1.14 2-2zm-7-3h-1.911c-.119.661-.119 1.339 0 2H13c-.025-.321-.039-.654-.039-1s.014-.679.039-1zm4.961 0H15.04c-.023.319-.039.648-.039 1s.016.681.039 1h2.922c.023-.319.039-.648.039-1s-.016-.681-.039-1zm2.95 0H19c.025.321.039.654.039 1s-.014.679-.039 1h1.911c.119-.661.119-1.339 0-2zM18 13c.332.63.586 1.301.756 2H20c-.469-.86-1.164-1.556-2-2zm-2 0c-.454.576-.795 1.258-1 2h2c-.205-.742-.546-1.424-1-2zm-2 0c-.836.444-1.531 1.14-2 2h1.244c.17-.699.424-1.37.756-2zm-1-5v1H7V8h6zm0-3v1H7V5h6z"/>
</svg>
