<svg xmlns="http://www.w3.org/2000/svg" xmlns:xlink="http://www.w3.org/1999/xlink" width="24" height="24" viewBox="0 0 24 24">
    <path d="M9.969 11.08c-.027.032-.051.073-.07.12-.02.048-.031.091-.031.13 0 .106.04.197.123.272.08.076.194.133.339.173V12H7v-.225c.364-.096.72-.36 1.073-.797l.068-.083 2.693-3.408L8.183 4.08c-.263-.339-.467-.56-.612-.66-.146-.1-.314-.168-.504-.2V3h3.75v.218c-.157.044-.272.1-.344.163-.073.064-.11.15-.11.255 0 .045.01.091.03.138.019.048.046.091.08.13l1.578 2.043 1.636-2.043c.033-.039.06-.082.083-.13.022-.047.033-.082.033-.104 0-.107-.04-.195-.116-.268-.08-.073-.2-.134-.362-.184V3h3.315v.218c-.36.067-.722.342-1.091.828l-.025.033-2.492 3.157 2.853 3.667c.217.29.406.496.565.615.16.121.343.207.55.257V12h-3.742v-.225c.15-.04.264-.096.336-.168.073-.072.108-.165.108-.277 0-.028-.008-.065-.028-.113-.02-.047-.044-.094-.072-.138l-1.795-2.336-1.838 2.336zm8.04 5.943v-3l3.99 4-3.99 4v-3H5.99v3l-3.99-4 3.99-4v3h12.02z"/>
</svg>
