<svg xmlns="http://www.w3.org/2000/svg" xmlns:xlink="http://www.w3.org/1999/xlink" width="24" height="24" viewBox="0 0 24 24">
    <path d="M14.008 7.965c-.174-.25-.335-.432-.482-.544-.146-.112-.322-.194-.526-.245v-.2h3.254v.2c-.15.05-.25.102-.302.153-.052.05-.078.115-.078.192 0 .056.006.11.022.164.014.054.033.093.05.119l1.68 2.512 1.82-2.512c.032-.041.054-.08.069-.12.015-.037.023-.08.023-.125 0-.092-.033-.17-.097-.23-.066-.061-.164-.112-.3-.153v-.2H22v.2c-.193.06-.374.157-.541.287-.166.13-.322.298-.467.502l-2.596 3.668v4.686c0 .157.022.263.067.317.045.054.143.099.29.134l.009.207h-2.508v-.207c.15-.035.247-.083.295-.142.047-.06.07-.162.07-.31v-4.562l-2.611-3.791zM8 18.01h3L7 22l-4-3.99h3V5.99H3L7 2l4 3.99H8v12.02z"/>
</svg>
