<svg xmlns="http://www.w3.org/2000/svg" xmlns:xlink="http://www.w3.org/1999/xlink" width="32" height="32" viewBox="0 0 32 32">
    <defs>
        <path id="vo8n5yttqa" d="M18.81 13.438c-.158.198-.451.412-.724.272-.414-.213-.654-.985-.569-1.487.086-.502.22-1.213.22-1.213s.112-.216.341-.048c.228.168 1.063.93 1.087 1.097.023.168-.198 1.18-.355 1.379m.6-2.187c-.89-.89-1.2-1.84-1.731-1.948-.53-.107-1.591-.025-1.493-.785 0 0 .25-.18.373-.56.122-.379.113-.776.03-1.061-.083-.286-.489-1.224-1.552-.78-.867.364-.558 1.468-.401 1.648.156.18.43.485.454.644.023.158.07.602-.413.875-.483.274-1.102.439-1.074 1.437.012.4-.103.835-.176.835-.069 0-.502-.186-.685-.356-.433-.403-.685-.826-.829-.985-.145-.159-1.096-.225-1.35-.289-.253-.064-.626-.17-.554-.065.072.106.578.181.819.383.24.2.542.17.735.234.192.064.534.696 1.129 1.657.375.605.718.846.907.854.242.01.388-.005.63-.268s.352.205.302.437c-.049.232-.807 1.389-.59 3.456.145 1.387.67 2.315.67 3.234 0 .592-.142 1.6 0 2.297.143.697.326 1.317.325 1.718-.002.402-.1.866-.053 1.31.047.443.406.987.846.783.136-.063.295-.012.44.025.227.058.423-.095.3-.404-.096-.236-.58-.393-.335-1.765.22-1.23.542-1.646.595-3.438.013-.448.096-.892.244-1.318.222-.638.542-1.67.694-2.7.247-1.668.127-1.502.513-1.67.386-.167 1.318-1.217 1.562-1.935.243-.717.556-.61-.333-1.5"/>
    </defs>
    <g fill="none" fill-rule="evenodd">
        <g>
            <g>
                <g transform="translate(-1089 -222) translate(1069 202) translate(20 20)">
                    <rect width="32" height="32" fill="#865EFF" rx="4"/>
                    <use fill="#FFF" xlink:href="#vo8n5yttqa"/>
                </g>
            </g>
        </g>
    </g>
</svg>
