<svg height="16" viewBox="0 0 16 16" width="16" xmlns="http://www.w3.org/2000/svg"><g fill="none" fill-rule="evenodd"><path d="m3.311 5.716v3.497h3.2l1.575 1.47h5.48v-3.496h-5.48l-1.575-1.47z" fill="#405279"/><path d="m3.311 9.634v5.054h10.255v-3.584h-5.48l-1.575-1.47zm0-7.803v3.466h3.2l1.575 1.47h5.48v-3.465h-5.48l-1.575-1.47z" fill="#405279"/><path d="m3.311 5.195v3.497h3.2l1.575 1.471h5.48v-3.497h-5.48l-1.575-1.47z" fill="#91b4ff"/><path d="m3.311 9.112v5.056h10.255v-3.585h-5.48l-1.575-1.47z" fill="#91b4ff"/><path d="m11.473 12.355-.56-.561-.542.542 1.09 1.09.002-.001.002.002 1.745-1.747-.532-.532zm0-3.918-.56-.56-.542.543 1.09 1.09.001-.002.002.002 1.746-1.746-.53-.532z" fill="#fff"/><path d="m3.311 1.31v3.465h3.2l1.575 1.471h5.48v-3.465h-5.48l-1.575-1.47z" fill="#91b4ff"/><path d="m12.93 3.83-.531-.532-.607.607-.61-.609-.53.532.609.608-.608.608.532.531.607-.607.606.606.532-.532-.606-.606z" fill="#fff"/><path d="m3.635 4.774h.8v-3.199h-.8zm0 3.901h.8v-3.5h-.8zm0 5.6h.8v-5.199h-.8z" fill="#d1e0ff"/><path d="m3 1v14h10.877v-12.53h-5.668l-1.575-1.47zm.622.622h2.767l1.575 1.47h5.291v11.287h-9.633z" fill="#000"/></g></svg>