<svg xmlns="http://www.w3.org/2000/svg" width="42" height="56" viewBox="0 0 42 56">
    <g fill="none" fill-rule="evenodd">
        <g fill="#DADADA" fill-rule="nonzero">
            <g>
                <g>
                    <path d="M21 126.667c2.887 0 5.25-2.4 5.25-5.334C26.25 118.4 23.887 116 21 116s-5.25 2.4-5.25 5.333c0 2.934 2.363 5.334 5.25 5.334zm15.75-24h-2.625v-5.334C34.125 89.973 28.245 84 21 84S7.875 89.973 7.875 97.333v5.334H5.25c-2.888 0-5.25 2.4-5.25 5.333v26.667C0 137.6 2.362 140 5.25 140h31.5c2.888 0 5.25-2.4 5.25-5.333V108c0-2.933-2.362-5.333-5.25-5.333zm-23.887-5.334c0-4.56 3.648-8.266 8.137-8.266 4.489 0 8.137 3.706 8.137 8.266v5.334H12.863v-5.334zm23.887 37.334H5.25V108h31.5v26.667z" transform="translate(-759 -357) translate(704 225) translate(55 48)"/>
                </g>
            </g>
        </g>
    </g>
</svg>
