<svg xmlns="http://www.w3.org/2000/svg" width="56" height="56" viewBox="0 0 56 56">
    <g fill="none" fill-rule="evenodd">
        <g fill="#DADADA">
            <g>
                <g>
                    <g>
                        <path d="M9.179 42.48c1.468-1.477 3.846-1.477 5.313 0 1.468 1.476 1.468 3.87 0 5.347-1.467 1.476-3.845 1.476-5.313 0-1.467-1.477-1.467-3.871 0-5.348m19.687 5.958c2.075 0 3.757 1.693 3.757 3.782 0 2.088-1.682 3.781-3.757 3.781s-3.757-1.693-3.757-3.78c0-2.09 1.682-3.783 3.757-3.783m0-48.437c2.075 0 3.757 1.693 3.757 3.781 0 2.089-1.682 3.782-3.757 3.782S25.109 5.87 25.109 3.78C25.109 1.693 26.79 0 28.866 0M9.16 8.185c1.467-1.477 3.846-1.477 5.314 0 1.467 1.476 1.467 3.87 0 5.347-1.468 1.477-3.847 1.477-5.314 0-1.467-1.476-1.467-3.87 0-5.347M4.757 24.219c2.075 0 3.757 1.692 3.757 3.78 0 2.09-1.682 3.783-3.757 3.783S1 30.089 1 28s1.682-3.781 3.757-3.781m44.37-15.26l-3.801 3.826c4.025 4.051 6.262 9.498 6.262 15.215 0 5.762-2.237 11.164-6.262 15.216l3.802 3.826C54.182 41.955 57 35.202 57 28c0-7.203-2.818-13.955-7.872-19.042" transform="translate(-760 -357) translate(704 225) translate(55 48) translate(0 84)"/>
                    </g>
                </g>
            </g>
        </g>
    </g>
</svg>
