<svg height="16" viewBox="0 0 16 16" width="16" xmlns="http://www.w3.org/2000/svg"><g fill="none" fill-rule="evenodd"><path d="m2.333 4.803v6.857l6.15 3.43v-6.886l-6.132-3.412z" fill="#b0b0b0"/><path d="m8.325 8.22.013-.006-.013-.008z" fill="#ff7c00"/><path d="m2.351 4.793 6.132 3.413.013.008 6.132-3.414-6.145-3.426z" fill="#dadada"/><path d="m8.496 8.213-.013.007v6.87l6.15-3.43v-6.857l-.005-.003z" fill="#666"/><path d="m2.351 11.79 6.132 3.414v-6.832z" fill="#8b8b8b"/><path d="m8.483 15.204.014.007 6.131-3.413-6.145-3.426z" fill="#555"/><path d="m2.175 4.516-.175.094v7.238l6.482 3.615h.003l6.314-3.52.167-.126v-7.197l-6.483-3.619zm.492 6.955v-6.479l5.816-3.244 5.817 3.242v6.481l-5.817 3.244z" fill="#000"/></g></svg>