<svg height="17" viewBox="0 0 16 17" width="16" xmlns="http://www.w3.org/2000/svg"><g fill="none" fill-rule="evenodd"><path d="m3.325 3.157v10.436l4.869 2.78v-10.454l-4.854-2.771z" fill="#6689de"/><path d="m3.34 5.332 4.854 2.78v-.468l-4.854-2.77zm0 2.111 4.854 2.779v-.467l-4.854-2.77zm0 2.11 4.854 2.78v-.468l-4.854-2.77zm0 2.112 4.854 2.778v-.467l-4.854-2.77z" fill="#a0b7f8"/><path d="m8.194 5.93.01-.004-.01-.008z" fill="#ff7c00"/><path d="m3.34 3.149 4.854 2.769.011.008 4.855-2.771-4.866-2.781z" fill="#a0b7f8"/><path d="m8.205 5.925-.011.005v10.444l4.87-2.782v-10.435l-.004-.002z" fill="#4962ab"/><path d="m13.06 3.155-4.865-2.78-4.855 2.772-.015.008v10.436l4.87 2.783 4.869-2.783v-10.435z" stroke="#000" stroke-width=".65"/><path d="m9.21 6.574v1.001l1.002-.5v-1z" fill="#ff655b"/></g></svg>