<svg height="16" viewBox="0 0 16 16" width="16" xmlns="http://www.w3.org/2000/svg"><g fill="none" fill-rule="evenodd"><path d="m4.656 2.167-.01.006v3.712l3.254 1.856v-3.726z" fill="#e8e8e8"/><path d="m7.9 4.024.006-.005-.006-.004z" fill="#ff7c00"/><path d="m4.657 2.167 3.243 1.848.006.003 3.244-1.847-3.25-1.854z" fill="#fff"/><path d="m11.15 2.17-3.242 1.85-.007.005v3.715l3.253-1.856v-3.711z" fill="#b7b7b7"/><path d="m4.656 5.956 3.244 1.848v-3.7z" fill="#d6d6d6"/><path d="m7.9 4.104v3.7l.007.003 3.243-1.847z" fill="#aaa"/><path d="m7.9 0-3.396 1.938-.133.08v4.027l3.53 2.013 3.388-1.933.14-.097v-3.988zm-2.979 5.725v-3.393l2.98-1.7 2.977 1.7v3.393l-2.978 1.7z" fill="#999899"/><path d="m.275 9.931v3.714l3.252 1.854v-3.726l-3.243-1.847z" fill="#e8e8e8"/><path d="m3.528 11.783.007-.005-.007-.004z" fill="#ff7c00"/><path d="m.284 9.926 3.244 1.848.007.004 3.245-1.848-3.25-1.854z" fill="#fff"/><path d="m3.535 11.778-.007.005v3.717l3.254-1.854v-3.715l-.002-.001z" fill="#b7b7b7"/><path d="m.284 13.715 3.244 1.848v-3.698z" fill="#d6d6d6"/><path d="m3.528 15.563.007.004 3.245-1.848-3.252-1.854z" fill="#aaa"/><path d="m9.018 9.931v3.714l3.253 1.854v-3.726l-3.244-1.847z" fill="#e8e8e8"/><path d="m12.271 11.783.007-.005-.007-.004z" fill="#ff7c00"/><path d="m9.027 9.926 3.245 1.848.007.004 3.243-1.848-3.25-1.854z" fill="#fff"/><path d="m12.279 11.778-.007.005v3.717l3.253-1.854v-3.715l-.002-.002z" fill="#b7b7b7"/><path d="m9.027 13.715 3.245 1.848v-3.698z" fill="#d6d6d6"/><path d="m12.271 15.563.007.004 3.245-1.848-3.252-1.854z" fill="#aaa"/><path d="m.133 9.696-.133.08v4.028l3.528 2.012 3.39-1.932.14-.098v-4.002l-3.53-2.026zm.417 3.788v-3.394l2.978-1.699 2.98 1.7v3.393l-2.98 1.7-2.978-1.7zm8.326-3.788-.133.08v4.028l3.529 2.012 3.389-1.932.139-.098v-4.002l-3.528-2.026zm.417 3.788v-3.394l2.979-1.699 2.978 1.7v3.393l-2.978 1.7-2.98-1.7z" fill="#999899"/></g></svg>