<svg xmlns="http://www.w3.org/2000/svg" width="100" height="100" viewBox="0 0 100 100">
    <path fill="#000" d="M211.444 30.556H242V0h-30.556v30.556zm-34.666 0h30.554V0h-30.554v30.556zm-34.778 0h30.556V0H142v30.556zm69.444 34.777H242V34.78h-30.556v30.554zm-9.666-30.555v2.778h2.776v2.777h2.78v-5.555h-5.556zm-8.667 2.778h6.445v-2.778h-6.445v2.778zm-8.665 0h6.444v-2.778h-6.444v2.778zm-7.668-2.778v5.555h2.776v-2.777h2.78v-2.778h-5.556zM142 65.333h30.556V34.78H142v30.554zm62.554-16.444h2.778v-6.446h-2.778v6.446zm-27.776 0h2.776v-6.446h-2.776v6.446zm27.776 8.667h2.778V51.11h-2.778v6.446zm-27.776 0h2.776V51.11h-2.776v6.446zm27.776 2.222v2.778h-2.776v2.777h5.555v-5.555h-2.779zm-27.776 0v5.555h5.555v-2.777h-2.779v-2.778h-2.776zm16.333 5.555h6.445v-2.776h-6.445v2.776zm-8.665 0h6.444v-2.776h-6.444v2.776zM211.444 100H242V69.446h-30.556V100zm-34.666 0h30.554V69.446h-30.554V100zM142 100h30.556V69.446H142V100z" transform="translate(-910 -361) translate(768 361)"/>
</svg>
